PathFileType	4	(x/y/z)	S08_P20_T07
DataRate	CameraRate	NumFrames	NumMarkers	Units	OrigDataRate	OrigDataStartFrame	OrigNumFrames
240	240	6	51	mm	240	140	373
Frame#	Time	Sternum			R.Acromium			L.Acromium			Top.Head			R.ASIS			L.ASIS			R.PSIS			L.PSIS			R.Great.Tro			L.Great.Tro			R.Iliac.Crest			L.Iliac.Crest			V.Sacral			R.Thigh.Upper.Post			R.Thigh.Lower.Ant			R.Thigh.Lower.Post			R.Thigh.Upper.Ant			R.Knee.Lat			R.Knee.Med			R.Shank.Upper.Post			R.Shank.Lower.Ant			R.Shank.Lower.Post			R.Shank.Upper.Ant			R.Ankle.Lat			R.Ankle.Med			R.Heel.Upper			R.Heel.Med			R.Heel.Lat			R.Toe.Lat			R.Toe.Med			R.Toe.Tip			L.Thigh.Upper.Post			L.Thigh.Lower.Ant			L.Thigh.Lower.Post			L.Thigh.Upper.Ant			L.Knee.Lat			L.Knee.Med			L.Shank.Upper.Post			L.Shank.Lower.Ant			L.Shank.Lower.Post			L.Shank.Upper.Ant			L.Ankle.Lat			L.Ankle.Med			L.Heel.Upper			L.Heel.Med			L.Heel.Lat			L.Toe.Lat			L.Toe.Med			L.Toe.Tip			Cervical.Spine			Back			
		X1	Y1	Z1	X2	Y2	Z2	X3	Y3	Z3	X4	Y4	Z4	X5	Y5	Z5	X6	Y6	Z6	X7	Y7	Z7	X8	Y8	Z8	X9	Y9	Z9	X10	Y10	Z10	X11	Y11	Z11	X12	Y12	Z12	X13	Y13	Z13	X14	Y14	Z14	X15	Y15	Z15	X16	Y16	Z16	X17	Y17	Z17	X18	Y18	Z18	X19	Y19	Z19	X20	Y20	Z20	X21	Y21	Z21	X22	Y22	Z22	X23	Y23	Z23	X24	Y24	Z24	X25	Y25	Z25	X26	Y26	Z26	X27	Y27	Z27	X28	Y28	Z28	X29	Y29	Z29	X30	Y30	Z30	X31	Y31	Z31	X32	Y32	Z32	X33	Y33	Z33	X34	Y34	Z34	X35	Y35	Z35	X36	Y36	Z36	X37	Y37	Z37	X38	Y38	Z38	X39	Y39	Z39	X40	Y40	Z40	X41	Y41	Z41	X42	Y42	Z42	X43	Y43	Z43	X44	Y44	Z44	X45	Y45	Z45	X46	Y46	Z46	X47	Y47	Z47	X48	Y48	Z48	X49	Y49	Z49	X50	Y50	Z50	X51	Y51	Z51	

140	0.57917	-578.9	1212.1	309.9	-697.51	1445	491.87	-718.36	1480	157.63	-694.03	1770.1	344.88	-607.53	1005.6	417.67	-610.14	997.3	185.91	-811.94	1021.4	345.79	-807.59	1023.7	253.7	-659.54	897.82	492.07	-708.12	887.38	122.98	-702.8	1069.3	465.42	-706.06	1078.9	157.55	-826.01	981.8	300.15	-620.97	696.7	471.79	-519.1	627.37	431.23	-588.22	614.17	447.56	-545.98	716.03	454.99	-526.15	525.93	421.87	-563.34	523.32	300.55	-574.03	334.92	430.66	-510.8	277.2	400.47	-569.76	258.26	420.72	-514.55	355.17	413.42	-565.41	94.379	377.69	-536.38	112.71	301.22	-612.53	64.35	327.7	-597.04	37.568	300.13	-606.34	39.511	361.55	NaN	NaN	NaN	-411.38	50.089	293.51	-349.9	70.723	341.93	-739.01	678.49	141.43	-651.16	586.96	148.24	-720.33	589.53	151.91	-667.31	673.65	132.81	-718.74	494.41	161.09	-693.18	481.98	285.85	-874.1	402.96	165.13	-889.83	293.05	178.38	-927.44	353.28	181.19	-836.49	349.41	164.34	-1031.4	215.25	191.76	-1006.8	202.03	275.67	-1079.5	243.89	242.38	-1096.9	217.35	276.4	-1100.1	221.43	212.1	-1017	71.023	186.37	-993.05	69.245	300.27	-946.51	37.383	254.39	-775.13	1505.6	321.17	-817.03	1221.3	320.62
141	0.58333	-573.48	1212.5	309.94	-691.52	1445.4	492.17	-713.25	1480.4	158.02	-688.54	1770.4	345.3	-601.94	1006.3	418.09	-604.63	997.33	186.37	-806.39	1021.7	345.94	-802.09	1023.6	253.83	-653.77	898.65	492.59	-701.81	886.78	123.44	-697.34	1070	465.63	-700.62	1078.7	157.71	-820.43	981.85	300.46	-615.79	697.16	472.49	-514.34	627.51	431.46	-583.43	614.54	448.18	-540.83	716.27	455.29	-521.98	525.84	422.12	-559.23	523.51	300.83	-571.48	335.06	430.94	-508.74	276.87	400.58	-567.82	258.38	420.89	-511.86	354.86	413.6	-565.13	94.495	377.65	-536.09	112.68	301.24	-612.47	64.456	327.74	-597.04	37.658	300.16	-606.32	39.604	361.59	NaN	NaN	NaN	-411.29	49.714	293.44	-349.72	70.062	341.87	-729.92	677.28	141.4	-640.85	586.91	147.82	-709.92	588.56	151.51	-658.06	673.49	132.61	-706.79	493.88	160.29	-680.59	481.16	285.39	-862.47	404.6	164.64	-879.98	294.93	177.76	-916.52	355.64	180.72	-825.63	350.53	163.81	-1022.2	219.43	190.92	-997.76	205.71	275.06	-1069	249.88	241.52	-1087.4	223.98	275.62	-1090.4	228.1	211.3	-1012.1	74.345	185.89	-988.28	71.965	299.69	-943.03	37.245	253.84	-769.68	1506	321.78	-811.57	1221.7	321.13
142	0.5875	-568.08	1212.9	309.95	-685.56	1445.7	492.45	-708.14	1480.8	158.37	-683.04	1770.7	345.72	-596.38	1006.9	418.49	-599.18	997.39	186.81	-800.87	1022	346.12	-796.64	1023.6	253.99	-648.04	899.47	493.1	-695.58	886.24	123.89	-691.89	1070.8	465.84	-695.24	1078.6	157.87	-814.89	981.94	300.8	-610.81	697.59	473.15	-509.78	627.58	431.71	-578.87	614.88	448.77	-535.85	716.45	455.6	-518.04	525.71	422.36	-555.32	523.68	301.09	-569.09	335.19	431.17	-506.83	276.54	400.69	-566.03	258.5	421.03	-509.34	354.56	413.78	-564.88	94.614	377.61	-535.83	112.66	301.24	-612.41	64.547	327.77	-597.04	37.734	300.18	-606.31	39.683	361.62	NaN	NaN	NaN	-411.2	49.411	293.38	-349.57	69.5	341.83	-720.81	676.2	141.37	-630.55	587.01	147.43	-699.54	587.72	151.14	-648.81	673.46	132.41	-694.8	493.52	159.53	-668.03	480.54	284.99	-850.72	406.28	164.17	-869.94	296.89	177.16	-905.44	358.01	180.27	-814.61	351.72	163.32	-1012.6	223.54	190.13	-988.46	209.35	274.48	-1058.2	255.66	240.71	-1077.6	230.37	274.89	-1080.4	234.56	210.53	-1006.7	77.729	185.39	-982.98	74.748	299.08	-939.02	37.239	253.23	-764.25	1506.4	322.36	-806.13	1222.1	321.63
143	0.59167	-562.7	1213.3	309.95	-679.62	1446.2	492.71	-703.05	1481.3	158.71	-677.54	1771.1	346.12	-590.84	1007.6	418.87	-593.79	997.49	187.23	-795.38	1022.4	346.34	-791.25	1023.5	254.19	-642.36	900.29	493.6	-689.41	885.78	124.36	-686.45	1071.6	466.05	-689.91	1078.5	158.03	-809.39	982.08	301.18	-606.01	698.01	473.75	-505.44	627.56	431.96	-574.53	615.18	449.31	-531.04	716.56	455.93	-514.33	525.56	422.6	-551.64	523.83	301.34	-566.88	335.31	431.36	-505.05	276.23	400.81	-564.37	258.61	421.14	-506.98	354.26	413.95	-564.66	94.736	377.55	-535.61	112.66	301.23	-612.37	64.627	327.79	-597.04	37.798	300.2	-606.29	39.752	361.65	NaN	NaN	NaN	-411.12	49.167	293.33	-349.44	69.019	341.79	-711.69	675.27	141.35	-620.26	587.27	147.07	-689.17	587.03	150.81	-639.56	673.57	132.22	-682.8	493.33	158.81	-655.55	480.14	284.63	-838.87	408	163.72	-859.74	298.92	176.61	-894.21	360.38	179.84	-803.46	352.99	162.86	-1002.9	227.56	189.39	-978.89	212.94	273.94	-1047.3	261.21	239.95	-1067.4	236.49	274.2	-1070.2	240.75	209.82	-1000.7	81.144	184.87	-977.11	77.567	298.43	-934.41	37.387	252.54	-758.83	1506.9	322.93	-800.71	1222.5	322.11
144	0.59583	-557.35	1213.8	309.92	-673.72	1446.6	492.95	-697.97	1481.8	159.02	-672.03	1771.6	346.52	-585.31	1008.4	419.23	-588.46	997.63	187.63	-789.91	1022.8	346.6	-785.89	1023.6	254.43	-636.72	901.08	494.09	-683.33	885.4	124.82	-681	1072.4	466.27	-684.63	1078.4	158.2	-803.93	982.27	301.59	-601.41	698.4	474.29	-501.3	627.47	432.23	-570.43	615.45	449.8	-526.4	716.6	456.27	-510.84	525.37	422.84	-548.18	523.96	301.58	-564.82	335.42	431.51	-503.4	275.93	400.92	-562.85	258.71	421.21	-504.79	353.96	414.11	-564.46	94.858	377.48	-535.42	112.67	301.21	-612.32	64.697	327.8	-597.03	37.851	300.21	-606.28	39.811	361.66	NaN	NaN	NaN	-411.05	48.97	293.28	-349.33	68.605	341.77	-702.57	674.48	141.33	-609.99	587.68	146.74	-678.84	586.51	150.54	-630.31	673.81	132.03	-670.79	493.34	158.13	-643.17	479.97	284.33	-826.94	409.74	163.29	-849.37	300.98	176.1	-882.85	362.74	179.41	-792.18	354.32	162.45	-992.87	231.47	188.71	-969.07	216.44	273.43	-1036.2	266.47	239.26	-1057.1	242.28	273.57	-1059.7	246.62	209.17	-994.19	84.558	184.33	-970.65	80.392	297.75	-929.16	37.71	251.79	-753.42	1507.4	323.47	-795.31	1223	322.58
145	0.6	-552.01	1214.3	309.87	-667.85	1447.1	493.18	-692.9	1482.3	159.31	-666.51	1772	346.9	-579.8	1009.1	419.56	-583.19	997.81	188.01	-784.47	1023.2	346.89	-780.58	1023.7	254.72	-631.13	901.85	494.57	-677.33	885.1	125.3	-675.54	1073.2	466.5	-679.41	1078.4	158.38	-798.51	982.51	302.04	-597	698.77	474.77	-497.37	627.31	432.51	-566.55	615.69	450.24	-521.93	716.57	456.61	-507.57	525.17	423.08	-544.94	524.07	301.81	-562.91	335.53	431.63	-501.88	275.64	401.02	-561.45	258.81	421.26	-502.75	353.68	414.25	-564.28	94.98	377.41	-535.26	112.7	301.17	-612.28	64.758	327.8	-597.02	37.896	300.22	-606.26	39.864	361.67	NaN	NaN	NaN	-410.97	48.809	293.24	-349.22	68.246	341.75	-693.45	673.85	141.33	-599.75	588.26	146.45	-668.55	586.14	150.33	-621.09	674.19	131.85	-658.8	493.54	157.52	-630.92	480.03	284.08	-814.95	411.52	162.89	-838.83	303.08	175.62	-871.37	365.07	179	-780.78	355.72	162.07	-982.68	235.25	188.08	-959.01	219.85	272.95	-1024.9	271.43	238.65	-1046.5	247.7	273.01	-1049	252.13	208.58	-987.08	87.939	183.76	-963.57	83.194	297.04	-923.2	38.221	250.97	-748.02	1507.9	323.98	-789.92	1223.5	323.04
